<?xml version="1.0" standalone="no"?>
<!DOCTYPE svg PUBLIC "-//W3C//DTD SVG 20010904//EN"
 "http://www.w3.org/TR/2001/REC-SVG-20010904/DTD/svg10.dtd">
<svg version="1.0" xmlns="http://www.w3.org/2000/svg"
 width="300.000000pt" height="300.000000pt" viewBox="0 0 300.000000 300.000000"
 preserveAspectRatio="xMidYMid meet">
<metadata>
Created by potrace 1.11, written by Peter Selinger 2001-2013
</metadata>
<g transform="translate(0.000000,300.000000) scale(0.100000,-0.100000)"
fill="#000000" stroke="none">
<path d="M0 1500 l0 -1500 1500 0 1500 0 0 1500 0 1500 -1500 0 -1500 0 0
-1500z m1590 1165 c0 -154 -14 -135 112 -155 99 -15 207 -54 356 -125 72 -35
132 -66 132 -68 0 -5 -190 -370 -196 -376 -2 -2 -52 21 -111 51 -102 53 -218
98 -290 113 l-33 7 0 -176 0 -175 43 -11 c109 -28 279 -87 349 -122 88 -44
186 -129 225 -195 77 -132 92 -344 34 -507 -26 -75 -93 -169 -154 -218 -97
-77 -253 -136 -409 -153 l-58 -6 0 -155 0 -154 -105 0 -105 0 0 160 0 160 -36
0 c-54 0 -222 37 -326 71 -98 32 -310 132 -328 154 -8 10 13 62 87 209 54 108
102 196 106 196 5 0 29 -14 53 -31 98 -67 321 -158 428 -174 l46 -7 0 170 0
170 -132 42 c-293 93 -430 192 -491 358 -28 77 -30 268 -3 357 40 132 114 241
212 311 100 72 189 106 362 140 22 4 22 7 22 139 l0 135 105 0 105 0 0 -135z"/>
<path d="M1320 2088 c-75 -38 -100 -125 -56 -193 16 -24 83 -67 124 -80 l22
-6 0 150 c0 151 0 151 -23 151 -12 0 -43 -10 -67 -22z"/>
<path d="M1560 1119 l0 -151 43 7 c89 15 147 67 147 131 0 55 -53 107 -152
149 l-38 15 0 -151z"/>
</g>
</svg>
